<svg width="56" height="56" viewBox="0 0 56 56" fill="none" xmlns="http://www.w3.org/2000/svg">
<circle cx="28.25" cy="27.75" r="27.25" fill="#2D3240" stroke="#E1E3E9"/>
<g clip-path="url(#clip0_107_5)">
<path d="M17.9563 22.7316C17.4653 22.7316 17.0486 22.9028 16.7062 23.2453C16.3637 23.5878 16.1924 23.9988 16.1924 24.4784V31.8432C16.1924 32.3349 16.3636 32.7511 16.7062 33.0937C17.0486 33.4362 17.4653 33.6074 17.9563 33.6074C18.447 33.6074 18.8612 33.4362 19.1983 33.0937C19.5348 32.7512 19.7036 32.3349 19.7036 31.8432V24.4784C19.7036 23.9987 19.5323 23.5878 19.1898 23.2453C18.8472 22.9028 18.436 22.7316 17.9563 22.7316Z" fill="#E1E3E9"/>
<path d="M32.138 16.1203L33.3541 13.877C33.4339 13.7284 33.4055 13.6146 33.2686 13.5345C33.1201 13.4654 33.0059 13.5004 32.9261 13.637L31.6931 15.8982C30.6081 15.4185 29.4605 15.1782 28.2503 15.1782C27.0399 15.1782 25.8923 15.4186 24.8076 15.8982L23.5745 13.637C23.4944 13.5004 23.3802 13.4657 23.232 13.5345C23.0949 13.6149 23.0665 13.7284 23.1466 13.877L24.3627 16.1203C23.1296 16.7491 22.1475 17.6249 21.4167 18.7496C20.686 19.8748 20.3205 21.1045 20.3205 22.4408H36.163C36.163 21.1048 35.7974 19.8751 35.0667 18.7496C34.3359 17.6249 33.3595 16.7491 32.138 16.1203ZM25.1073 19.3832C24.9757 19.515 24.8187 19.5806 24.6361 19.5806C24.4532 19.5806 24.2993 19.515 24.1737 19.3832C24.0482 19.252 23.9854 19.0956 23.9854 18.9124C23.9854 18.7298 24.0482 18.573 24.1737 18.4415C24.2993 18.3103 24.4535 18.2447 24.6361 18.2447C24.8187 18.2447 24.9757 18.3103 25.1073 18.4415C25.2385 18.5733 25.3044 18.7298 25.3044 18.9124C25.304 19.0953 25.2381 19.252 25.1073 19.3832ZM32.3263 19.3832C32.2005 19.515 32.0462 19.5806 31.864 19.5806C31.681 19.5806 31.5239 19.515 31.3927 19.3832C31.2612 19.252 31.1956 19.0956 31.1956 18.9124C31.1956 18.7298 31.2612 18.573 31.3927 18.4415C31.5239 18.3103 31.681 18.2447 31.864 18.2447C32.0465 18.2447 32.2004 18.3103 32.3263 18.4415C32.4519 18.5733 32.5146 18.7298 32.5146 18.9124C32.5146 19.0953 32.4518 19.252 32.3263 19.3832Z" fill="#E1E3E9"/>
<path d="M20.3885 34.4637C20.3885 34.9894 20.5711 35.4344 20.9363 35.7997C21.3019 36.1649 21.7469 36.3475 22.2723 36.3475H23.5398L23.5571 40.2358C23.5571 40.7268 23.7284 41.1437 24.0709 41.4863C24.4133 41.8288 24.8246 42.0001 25.304 42.0001C25.7947 42.0001 26.2116 41.8288 26.5542 41.4863C26.8967 41.1437 27.0679 40.7268 27.0679 40.2358V36.3478H29.4314V40.2358C29.4314 40.7268 29.6026 41.1437 29.9452 41.4863C30.2877 41.8288 30.7042 42.0001 31.1953 42.0001C31.6861 42.0001 32.103 41.8288 32.4455 41.4863C32.7881 41.1437 32.9593 40.7268 32.9593 40.2358V36.3478H34.2439C34.7576 36.3478 35.1969 36.1652 35.5628 35.8C35.9279 35.4348 36.1106 34.9897 36.1106 34.464V23.0567H20.3885V34.4637Z" fill="#E1E3E9"/>
<path d="M38.5437 22.7316C38.0639 22.7316 37.653 22.9003 37.3105 23.2368C36.968 23.5739 36.7968 23.9881 36.7968 24.4784V31.8432C36.7968 32.3349 36.9679 32.7511 37.3105 33.0937C37.653 33.4362 38.0642 33.6074 38.5437 33.6074C39.0344 33.6074 39.4513 33.4362 39.7938 33.0937C40.1364 32.7511 40.3076 32.3349 40.3076 31.8432V24.4784C40.3076 23.988 40.1364 23.5739 39.7938 23.2368C39.4513 22.9003 39.0344 22.7316 38.5437 22.7316Z" fill="#E1E3E9"/>
</g>
<defs>
<clipPath id="clip0_107_5">
<rect width="28.5" height="28.5" fill="white" transform="translate(14 13.5)"/>
</clipPath>
</defs>
</svg>
