<svg width="484" height="719" viewBox="0 0 484 719" fill="none" xmlns="http://www.w3.org/2000/svg">
<g filter="url(#filter0_d_14_2)">
<path d="M116.632 116.871C116.632 117.947 117.036 118.956 117.843 119.898C118.65 120.706 119.66 121.11 120.871 121.11H233.503C234.579 121.11 235.521 121.513 236.328 122.321C237.27 123.128 237.741 124.137 237.741 125.348V229.503C237.741 230.579 237.27 231.521 236.328 232.328C235.521 233.27 234.579 233.741 233.503 233.741H8.23882C7.02772 233.741 6.01848 233.27 5.21108 232.328C4.40368 231.521 3.99998 230.579 3.99998 229.503V4.23882C3.99998 3.02773 4.40368 2.01848 5.21108 1.21108C6.01848 0.403682 7.02772 -1.52588e-05 8.23882 -1.52588e-05H233.503C234.579 -1.52588e-05 235.521 0.403682 236.328 1.21108C237.27 2.01848 237.741 3.02773 237.741 4.23882V108.393C237.741 109.47 237.27 110.479 236.328 111.421C235.521 112.228 234.579 112.632 233.503 112.632H120.871C119.66 112.632 118.65 113.036 117.843 113.843C117.036 114.65 116.632 115.66 116.632 116.871Z" fill="black"/>
<path d="M405.921 112.632C404.71 112.632 403.701 113.036 402.894 113.843C402.086 114.65 401.682 115.66 401.682 116.871C401.682 117.947 402.086 118.956 402.894 119.898C403.701 120.706 404.71 121.11 405.921 121.11H475.761C476.838 121.11 477.78 121.513 478.587 122.321C479.529 123.128 480 124.137 480 125.348V229.503C480 230.579 479.529 231.521 478.587 232.328C477.78 233.27 476.838 233.741 475.761 233.741H371.607C370.396 233.741 369.387 233.27 368.579 232.328C367.772 231.521 367.368 230.579 367.368 229.503V120.908C367.368 119.831 366.897 118.889 365.955 118.082C365.148 117.14 364.206 116.669 363.129 116.669C361.918 116.669 360.909 117.14 360.102 118.082C359.294 118.889 358.89 119.831 358.89 120.908V229.503C358.89 230.579 358.419 231.521 357.477 232.328C356.67 233.27 355.728 233.741 354.652 233.741H250.497C249.421 233.741 248.412 233.27 247.47 232.328C246.662 231.521 246.259 230.579 246.259 229.503V4.23882C246.259 3.02773 246.662 2.01848 247.47 1.21108C248.412 0.403682 249.421 -1.52588e-05 250.497 -1.52588e-05H475.761C476.838 -1.52588e-05 477.78 0.403682 478.587 1.21108C479.529 2.01848 480 3.02773 480 4.23882V108.393C480 109.47 479.529 110.479 478.587 111.421C477.78 112.228 476.838 112.632 475.761 112.632H405.921ZM367.368 43.1957C367.368 41.9846 366.897 40.9754 365.955 40.168C365.148 39.3606 364.206 38.9569 363.129 38.9569H358.89V73.0694H363.129C364.206 73.0694 365.148 72.6657 365.955 71.8583C366.897 70.9164 367.368 69.9071 367.368 68.8306V43.1957Z" fill="black"/>
<path d="M233.503 238.182C234.579 238.182 235.521 238.653 236.328 239.595C237.27 240.402 237.741 241.344 237.741 242.421V308.022C237.741 309.099 237.27 310.108 236.328 311.05C235.521 311.857 234.579 312.261 233.503 312.261H120.871C119.66 312.261 118.65 312.664 117.843 313.472C117.036 314.279 116.632 315.289 116.632 316.5C116.632 317.576 117.036 318.585 117.843 319.527C118.65 320.335 119.66 320.738 120.871 320.738H233.503C234.579 320.738 235.521 321.142 236.328 321.95C237.27 322.757 237.741 323.766 237.741 324.977V385.128C237.741 386.205 237.27 387.147 236.328 387.954C235.521 388.896 234.579 389.367 233.503 389.367H120.871C119.66 389.367 118.65 389.771 117.843 390.578C117.036 391.386 116.632 392.395 116.632 393.606C116.632 394.817 117.036 395.826 117.843 396.634C118.65 397.441 119.66 397.845 120.871 397.845H233.503C234.579 397.845 235.521 398.249 236.328 399.056C237.27 399.863 237.741 400.873 237.741 402.084V467.685C237.741 468.761 237.27 469.703 236.328 470.511C235.521 471.453 234.579 471.924 233.503 471.924H8.23882C7.02772 471.924 6.01848 471.453 5.21108 470.511C4.40368 469.703 3.99998 468.761 3.99998 467.685V242.421C3.99998 241.344 4.40368 240.402 5.21108 239.595C6.01848 238.653 7.02772 238.182 8.23882 238.182H233.503Z" fill="black"/>
<path d="M475.761 238.182C476.838 238.182 477.78 238.586 478.587 239.393C479.529 240.201 480 241.21 480 242.421V467.685C480 468.761 479.529 469.703 478.587 470.511C477.78 471.453 476.838 471.924 475.761 471.924H371.607C370.396 471.924 369.387 471.453 368.579 470.511C367.772 469.703 367.368 468.761 367.368 467.685V363.531C367.368 362.319 366.897 361.31 365.955 360.503C365.148 359.695 364.206 359.292 363.129 359.292C361.918 359.292 360.909 359.695 360.102 360.503C359.294 361.31 358.89 362.319 358.89 363.531V467.685C358.89 468.761 358.419 469.703 357.477 470.511C356.67 471.453 355.728 471.924 354.652 471.924H250.497C249.286 471.924 248.277 471.453 247.47 470.511C246.662 469.703 246.259 468.761 246.259 467.685V242.421C246.259 241.21 246.662 240.201 247.47 239.393C248.277 238.586 249.286 238.182 250.497 238.182H475.761ZM367.368 320.94C367.368 319.729 366.897 318.72 365.955 317.913C365.148 317.105 364.206 316.701 363.129 316.701C361.918 316.701 360.909 317.105 360.102 317.913C359.294 318.72 358.89 319.729 358.89 320.94V346.575C358.89 347.652 359.294 348.661 360.102 349.603C360.909 350.41 361.918 350.814 363.129 350.814C364.206 350.814 365.148 350.41 365.955 349.603C366.897 348.661 367.368 347.652 367.368 346.575V320.94Z" fill="black"/>
<path d="M64.5548 553.673C64.5548 552.461 64.0838 551.452 63.1418 550.645C62.3344 549.837 61.3925 549.434 60.3159 549.434H8.23882C7.02772 549.434 6.01848 549.03 5.21108 548.223C4.40368 547.281 3.99998 546.271 3.99998 545.195V480.603C3.99998 479.527 4.40368 478.585 5.21108 477.777C6.01848 476.835 7.02772 476.364 8.23882 476.364H233.503C234.579 476.364 235.521 476.835 236.328 477.777C237.27 478.585 237.741 479.527 237.741 480.603V545.195C237.741 546.271 237.27 547.281 236.328 548.223C235.521 549.03 234.579 549.434 233.503 549.434H181.425C180.214 549.434 179.205 549.837 178.398 550.645C177.59 551.452 177.187 552.461 177.187 553.673V705.867C177.187 706.943 176.716 707.885 175.774 708.693C174.966 709.635 174.024 710.106 172.948 710.106H68.7936C67.5825 710.106 66.5733 709.635 65.7659 708.693C64.9585 707.885 64.5548 706.943 64.5548 705.867V553.673Z" fill="black"/>
<path d="M475.761 476.364C476.838 476.364 477.78 476.835 478.587 477.777C479.529 478.585 480 479.527 480 480.603V546.204C480 547.281 479.529 548.29 478.587 549.232C477.78 550.039 476.838 550.443 475.761 550.443H363.129C361.918 550.443 360.909 550.847 360.102 551.654C359.294 552.461 358.89 553.471 358.89 554.682C358.89 555.758 359.294 556.768 360.102 557.71C360.909 558.517 361.918 558.921 363.129 558.921H475.761C476.838 558.921 477.78 559.324 478.587 560.132C479.529 560.939 480 561.948 480 563.159V623.311C480 624.387 479.529 625.329 478.587 626.136C477.78 627.078 476.838 627.549 475.761 627.549H363.129C361.918 627.549 360.909 627.953 360.102 628.76C359.294 629.568 358.89 630.577 358.89 631.788C358.89 632.999 359.294 634.009 360.102 634.816C360.909 635.623 361.918 636.027 363.129 636.027H475.761C476.838 636.027 477.78 636.431 478.587 637.238C479.529 638.046 480 639.055 480 640.266V705.867C480 706.943 479.529 707.885 478.587 708.693C477.78 709.635 476.838 710.106 475.761 710.106H250.497C249.286 710.106 248.277 709.635 247.47 708.693C246.662 707.885 246.259 706.943 246.259 705.867V480.603C246.259 479.527 246.662 478.585 247.47 477.777C248.277 476.835 249.286 476.364 250.497 476.364H475.761Z" fill="black"/>
</g>
<defs>
<filter id="filter0_d_14_2" x="-1.52588e-05" y="-1.52588e-05" width="484" height="718.106" filterUnits="userSpaceOnUse" color-interpolation-filters="sRGB">
<feFlood flood-opacity="0" result="BackgroundImageFix"/>
<feColorMatrix in="SourceAlpha" type="matrix" values="0 0 0 0 0 0 0 0 0 0 0 0 0 0 0 0 0 0 127 0" result="hardAlpha"/>
<feOffset dy="4"/>
<feGaussianBlur stdDeviation="2"/>
<feComposite in2="hardAlpha" operator="out"/>
<feColorMatrix type="matrix" values="0 0 0 0 0 0 0 0 0 0 0 0 0 0 0 0 0 0 0.25 0"/>
<feBlend mode="normal" in2="BackgroundImageFix" result="effect1_dropShadow_14_2"/>
<feBlend mode="normal" in="SourceGraphic" in2="effect1_dropShadow_14_2" result="shape"/>
</filter>
</defs>
</svg>
