<svg width="56" height="56" viewBox="0 0 56 56" fill="none" xmlns="http://www.w3.org/2000/svg">
<circle cx="27.75" cy="27.75" r="27.75" fill="#2D3240"/>
<g clip-path="url(#clip0_107_6)">
<path d="M31.5225 13.5C29.9911 13.6034 28.3521 14.5146 27.3375 15.7444C26.4494 16.8265 25.7048 18.4148 25.9875 20.0644C25.7344 19.9863 25.5044 19.9779 25.2281 19.8787C24.4751 19.6109 23.6144 19.3219 22.545 19.3219C20.4208 19.3219 18.2461 20.5854 16.875 22.6969C14.8795 25.7639 15.2803 31.1618 18.3094 35.775C18.843 36.585 19.4653 37.4688 20.2331 38.1712C21.0009 38.8737 21.929 39.4095 23.0175 39.42C23.9477 39.4305 24.5953 39.1205 25.1775 38.8631C25.7597 38.6058 26.3018 38.378 27.3206 38.3737C27.3269 38.3737 27.3312 38.3737 27.3375 38.3737C28.3521 38.3653 28.8773 38.5889 29.4469 38.8462C30.0164 39.1036 30.6576 39.4284 31.59 39.42C32.6995 39.4116 33.6424 38.8041 34.425 38.0531C35.2076 37.3022 35.8509 36.3804 36.3825 35.5725C37.144 34.4123 37.4498 33.7795 38.0362 32.4844C38.0974 32.3494 38.0995 32.1933 38.0405 32.0562C37.9835 31.9191 37.8717 31.8115 37.7325 31.7587C35.813 31.0331 34.7182 29.3351 34.56 27.54C34.4018 25.7449 35.1612 23.8971 37.0744 22.8487C37.2157 22.7728 37.3148 22.6399 37.3486 22.4838C37.3802 22.3277 37.3423 22.1632 37.2431 22.0387C35.8699 20.3323 33.9377 19.3219 32.0456 19.3219C30.839 19.3219 29.9531 19.6066 29.2275 19.8787C29.1073 19.9252 29.0187 19.9209 28.9069 19.9631C29.643 19.575 30.2927 19.0371 30.78 18.4106C31.6659 17.2737 32.3494 15.6558 32.0962 13.9556C32.054 13.6772 31.803 13.4789 31.5225 13.5ZM30.9487 14.7825C30.9129 15.873 30.5395 16.9404 29.9194 17.7356C29.2697 18.5709 28.177 19.1489 27.1181 19.3219C27.1371 18.2735 27.5505 17.1872 28.1812 16.4194C28.8436 15.6178 29.9405 15.0398 30.9487 14.7825ZM22.545 20.4019C23.4162 20.4019 24.1144 20.6276 24.8569 20.8912C25.5994 21.1549 26.3819 21.465 27.3037 21.465C28.2044 21.465 28.9174 21.1528 29.6156 20.8912C30.3138 20.6297 31.0099 20.4019 32.0456 20.4019C33.3977 20.4019 34.8595 21.1043 36.0112 22.3256C34.1676 23.6271 33.3049 25.6563 33.48 27.6244C33.6551 29.6135 34.8532 31.5014 36.8212 32.4844C36.3951 33.4125 36.1146 34.0263 35.4881 34.9819C34.9713 35.7687 34.3575 36.6293 33.6825 37.2769C33.0075 37.9244 32.2924 38.3337 31.5731 38.34C30.8791 38.3463 30.4847 38.1396 29.8856 37.8675C29.2865 37.5954 28.5124 37.2832 27.3206 37.2937C26.1309 37.3001 25.3462 37.5996 24.7387 37.8675C24.1312 38.1354 23.7326 38.3463 23.0344 38.34C22.2961 38.3337 21.6105 37.9751 20.9587 37.3781C20.3069 36.7812 19.7184 35.9669 19.2037 35.1844C16.3687 30.8644 16.1409 25.7892 17.7694 23.2875C18.9633 21.4502 20.8596 20.4019 22.545 20.4019Z" fill="#E1E3E9"/>
</g>
<defs>
<clipPath id="clip0_107_6">
<rect width="27" height="27" fill="white" transform="translate(13.5 13.5)"/>
</clipPath>
</defs>
</svg>
